<?xml version="1.0" encoding="UTF-8" standalone="no"?>
<!-- Generator: Adobe Illustrator 18.0.0, SVG Export Plug-In . SVG Version: 6.00 Build 0)  -->

<svg
   version="1.1"
   id="Calque_1"
   x="0px"
   y="0px"
   viewBox="0 0 611.99347 571.60812"
   xml:space="preserve"
   sodipodi:docname="unicorn.svg"
   width="611.99347"
   height="571.60809"
   inkscape:version="1.2.1 (9c6d41e, 2022-07-14)"
   xmlns:inkscape="http://www.inkscape.org/namespaces/inkscape"
   xmlns:sodipodi="http://sodipodi.sourceforge.net/DTD/sodipodi-0.dtd"
   xmlns:xlink="http://www.w3.org/1999/xlink"
   xmlns="http://www.w3.org/2000/svg"
   xmlns:svg="http://www.w3.org/2000/svg"><defs
   id="defs41"><color-profile
     name="ACES-CG-Linear--Academy-Color-Encoding-System-AP1-"
     xlink:href="file:///System/Library/ColorSync/Profiles/ACESCG%20Linear.icc"
     id="color-profile491" /></defs><sodipodi:namedview
   id="namedview39"
   pagecolor="#ffffff"
   bordercolor="#000000"
   borderopacity="0.25"
   inkscape:showpageshadow="true"
   inkscape:pageopacity="0.00784314"
   inkscape:pagecheckerboard="true"
   inkscape:deskcolor="#d1d1d1"
   showgrid="false"
   inkscape:zoom="1.2875956"
   inkscape:cx="197.65523"
   inkscape:cy="311.43319"
   inkscape:window-width="1390"
   inkscape:window-height="942"
   inkscape:window-x="0"
   inkscape:window-y="62"
   inkscape:window-maximized="0"
   inkscape:current-layer="g311"
   showborder="false"
   borderlayer="true"
   shape-rendering="auto" />
<style
   type="text/css"
   id="style2">
	.st0{fill:#3BA9CB;}
	.st1{fill:#FFCC00;}
	.st2{fill:#006E88;}
</style>





<g
   id="g311"
   transform="matrix(0.99853157,0,0,1,-120.14104,-17.08609)"><ellipse
     style="fill:#ffffff;stroke-width:0.886393"
     id="path199"
     cx="426.76443"
     cy="302.89014"
     rx="306.44672"
     ry="285.80405" /><g
     id="g8">
	<path
   class="st0"
   d="m 289.9,305.8 c 6.6,-7.6 14.4,-15.1 23.6,-21.8 -0.5,-7.8 -6.1,-61.6 -68.6,-67.5 0.4,-0.3 -13,67.4 45,89.3 z"
   id="path4" />
	<path
   class="st0"
   d="m 574.7,301.9 c 47.8,-25 35.9,-85.7 36.2,-85.4 -53,5 -65.1,44.5 -67.8,61.2 4.9,2.2 18,9.2 31.6,24.2 z"
   id="path6" />
</g><path
     d="m 596.5,482.2 c -4.9,-23 -16.8,-41 -40,-49.4 -10.2,-3.6 -20.7,-5.6 -31.6,-5.6 -32.3,0 -64.5,0 -96.8,0 -30.5,0 -61,0 -91.5,0 -6.2,0 -12.3,0.3 -18.4,1.1 -26,3.6 -44.9,16.6 -54.8,41.5 -4.8,12.1 -6.2,24.6 -4.2,37.4 3.4,21.6 15.4,36.9 35.6,45.1 20.5,8.3 41.1,5.6 60.5,-3.8 23.4,-11.3 37.6,-31.4 48,-54.4 4.7,-10.4 7.1,-21.4 3.8,-32.9 -0.6,-2.1 0,-3.8 1.6,-5.3 4.3,-4 8.8,-7.7 14.6,-9.2 8.3,-2.1 14.9,1.2 21.5,5.9 5.7,4 5.4,8.7 3.8,14.3 -0.2,0.8 -0.1,1.8 -0.1,2.6 -0.5,11.5 3.1,22 8.5,31.8 13.7,25 31.1,45.8 60.5,52.9 17.8,4.3 35.2,4.1 51.3,-5.2 25.3,-14.6 33.3,-40.9 27.7,-66.8 z m -140,-34.1 c -2,2.7 -3.4,1.1 -5.1,-0.3 -6.4,-5.3 -13.2,-9.9 -22.1,-10.1 -9.4,-0.2 -17.1,3.8 -23.7,9.9 -2.5,2.3 -3.9,2.5 -6.2,-0.3 -4.9,-6.1 -11.4,-10.3 -19.2,-14.1 32.6,0 64.2,0 96.3,0 -7.9,3.9 -14.9,8.2 -20,14.9 z"
     id="path10" /><g
     id="g22">
	<path
   class="st1"
   d="m 419.7,64.5 c 0.9,1.8 2.7,5 5.3,8.7 4.3,5.9 9,10.1 12.2,12.6 -0.7,-14.5 -3.7,-40.4 -8.9,-45.7 -0.4,-0.4 -0.6,-0.5 -0.7,-0.5 -4.9,0.7 -7.8,14.4 -8.3,23.9 0,0 0,0 0,0.1 0.1,0.2 0.3,0.5 0.4,0.9 z"
   id="path12" />
	<path
   class="st1"
   d="m 440.3,139.4 c 2.5,2.8 5.2,5.6 8,8.4 1,-4.2 1.6,-13.4 1.2,-22.6 -1,-21.2 -10.4,-30.5 -11.2,-31.3 -9.4,-5.7 -16,-14.1 -20,-20.3 -0.7,-1.1 -1.5,-2.4 -2.2,-3.6 -2.8,7.5 -2.5,20.9 -2,26.5 3.5,15.3 16.7,32.2 26.2,42.9 z"
   id="path14" />
	<path
   class="st1"
   d="m 465.9,259.8 c -0.5,-2.7 -1.2,-5.2 -2,-7 l -1.3,0.2 c -0.2,0 -1.8,0.3 -4.4,0.3 -2.2,0 -5.4,-0.2 -9.1,-1 -19.8,-3.5 -29.7,-17.1 -30.6,-18.4 -7.3,-9.6 -12.2,-18.8 -15.4,-27.3 -5.9,11.4 -14.2,31.7 -12,52.7 19.5,-1.5 46,-2.3 74.8,0.5 z"
   id="path16" />
	<path
   class="st1"
   d="m 453.4,202.7 c 3.8,-14.3 -1.2,-42.2 -6.6,-48.3 -1,-0.9 -6.5,-6.2 -13.1,-13.8 -11.7,-13.3 -19.6,-25.7 -23.3,-36.7 -2.6,6.2 -5.8,18 -4.2,32.3 1.9,17.6 11.8,43.3 47.2,66.5 z"
   id="path18" />
	<path
   class="st1"
   d="m 449.1,246.5 c 2.9,0.6 6.1,0.9 9.6,0.9 0,0 0,0 0,0 0.5,0 1.1,0 1.7,0 l 0.2,-0.5 c 1.1,-3.3 2.8,-11.8 -1.1,-27.8 0,-0.1 -0.1,-0.3 -0.2,-0.5 -0.5,-1.7 -1.8,-6.1 -5.1,-8.6 l -0.8,-0.5 c -0.2,-0.1 -0.3,-0.2 -0.5,-0.3 -0.5,-0.3 -1,-0.5 -1.6,-0.7 l -0.3,-0.1 c -0.1,0 -9,-4.1 -19.7,-14 -11.2,-10.3 -20,-23 -25.8,-37.1 -1.2,4.1 -2.4,9.8 -2.6,16.7 -0.2,6.9 0.6,15.8 3.8,26 11.6,33.3 29.9,43.6 42.4,46.5 z"
   id="path20" />
</g><g
     id="g30">
	<path
   d="m 587.1,325.7 c -2.3,-1.7 -5,-3.6 -8.1,-5.5 -0.7,0.4 -1.3,0.7 -2,1.1 0.1,0.2 0.2,0.4 0.3,0.7 0,0 0,0.1 0,0.1 0.1,0.2 0.2,0.4 0.3,0.7 0,0 0,0.1 0,0.1 0.1,0.2 0.2,0.5 0.3,0.7 0,0 0,0 0,0 0.1,0.3 0.2,0.6 0.3,0.8 0,0 0,0 0,0 0.5,1.2 0.9,2.6 1.4,4.1 0,0 0,0 0,0"
   id="path24" />
	<path
   d="m 273.7,327.6 c 0.7,-1.1 1.4,-2.2 2.1,-3.3 0,0 0,0 0,0 0.7,-1.1 1.5,-2.3 2.3,-3.4 C 198,279 218,177.4 217.4,177.8 c 82.5,7.8 105.8,65.6 112.3,96 2.5,-1.3 5.1,-2.6 7.8,-3.8 v 0 c -3,-110.5 -142.8,-127.3 -142.2,-127.2 -26.9,131.1 46.3,173 78.4,184.8 z"
   id="path26" />
	<path
   d="m 660.5,142.8 c 0.5,-0.1 -138.6,16.6 -142.2,126.5 0,0 0,0 0,0 1.4,0.4 2.8,0.8 4.1,1.2 0,0 0,0 0,0 1.4,0.4 2.8,0.8 4.1,1.2 7.2,-30.9 31.2,-86.3 111.9,-93.9 -0.6,-0.4 17.7,92.6 -51,137.4 1.6,2.6 3.1,5.5 4.4,8.4 35,-16.2 93.3,-61.7 68.7,-180.8 z"
   id="path28" />
</g><path
     class="st0"
     d="m 225.6,478.3 7.7,-5.7 c 0,0 0,0 0,-0.1 l -0.3,-9.6 c 0,-0.1 0.1,-0.1 0.1,-0.1 l 7.8,5.6 c 0,0 0.1,0 0.1,0 l 9,-3.2 c 0.1,0 0.1,0 0.1,0.1 l -2.9,9.1 c 0,0 0,0.1 0,0.1 l 5.9,7.6 c 0,0.1 0,0.1 -0.1,0.2 h -9.6 c 0,0 -0.1,0 -0.1,0 l -5.4,7.9 c 0,0.1 -0.1,0.1 -0.2,0 l -3,-9.1 c 0,0 0,-0.1 -0.1,-0.1 l -9.2,-2.7 c 0.2,0.1 0.1,0 0.2,0 z m 21.4,-24.8 5.8,-0.5 c 0,0 0,0 0,0 l 3.7,4.5 c 0,0 0.1,0 0.1,0 l 1.3,-5.7 c 0,0 0,0 0,0 l 5.4,-2.1 c 0,0 0,-0.1 0,-0.1 l -5,-3 c 0,0 0,0 0,0 l -0.4,-5.8 c 0,0 -0.1,-0.1 -0.1,0 l -4.4,3.8 c 0,0 0,0 -0.1,0 l -5.7,-1.5 c 0,0 -0.1,0 -0.1,0.1 l 2.3,5.4 c 0,0 0,0 0,0.1 l -2.8,4.8 c -0.1,-0.1 -0.1,0 0,0 z m -22,3.1 2.3,-3.8 c 0,0 0,0 0,0 l 4.4,-0.3 c 0,0 0.1,0 0,-0.1 l -3,-3.3 c 0,0 0,0 0,0 l 1.1,-4.3 c 0,0 0,-0.1 -0.1,-0.1 l -4.1,1.8 c 0,0 0,0 0,0 l -3.8,-2.4 c 0,0 -0.1,0 -0.1,0 l 0.4,4.4 c 0,0 0,0 0,0 l -3.4,2.9 c 0,0 0,0.1 0,0.1 l 4.4,1 c 0,0 0,0 0,0 l 1.9,4.1 c -0.1,0.1 -0.1,0.1 0,0 z m 403.8,21.7 -7.7,-5.7 c 0,0 0,0 0,-0.1 l 0.3,-9.6 c 0,-0.1 -0.1,-0.1 -0.1,-0.1 l -7.8,5.6 c 0,0 -0.1,0 -0.1,0 l -9,-3.2 c -0.1,0 -0.1,0 -0.1,0.1 l 2.9,9.1 c 0,0 0,0.1 0,0.1 l -5.9,7.6 c 0,0.1 0,0.1 0.1,0.2 h 9.6 c 0,0 0.1,0 0.1,0 l 5.4,7.9 c 0,0.1 0.1,0.1 0.2,0 l 3,-9.1 c 0,0 0,-0.1 0.1,-0.1 l 9.2,-2.7 c -0.2,0.1 -0.1,0 -0.2,0 z m -21.3,-24.9 -3.1,-4.9 c 0,0 0,0 0,-0.1 l 2.3,-5.4 c 0,0 0,-0.1 -0.1,-0.1 l -5.7,1.5 c 0,0 0,0 -0.1,0 l -4.4,-3.8 c 0,0 -0.1,0 -0.1,0 l -0.4,5.8 c 0,0 0,0 0,0 l -5,3 c 0,0 0,0.1 0,0.1 l 5.4,2.1 c 0,0 0,0 0,0 l 1.3,5.7 c 0,0 0.1,0.1 0.1,0 l 3.7,-4.5 c 0,0 0,0 0,0 l 6.1,0.6 c 0,0.1 0,0 0,0 z m 22,3.2 1.7,-4.1 c 0,0 0,0 0,0 l 4.4,-1 c 0,0 0,-0.1 0,-0.1 l -3.4,-2.9 c 0,0 0,0 0,0 l 0.4,-4.4 c 0,0 0,-0.1 -0.1,0 l -3.8,2.4 c 0,0 0,0 0,0 l -4.1,-1.8 c 0,0 -0.1,0 -0.1,0.1 l 1.1,4.3 c 0,0 0,0 0,0 l -3,3.3 c 0,0 0,0.1 0,0.1 l 4.4,0.3 c 0,0 0,0 0,0 l 2.5,3.8 c 0,0.1 0,0.1 0,0 z"
     id="path32" /><g
     id="g36">
	<path
   class="st2"
   d="m 541.1,276.7 c 0,0 40.9,14.3 54,55.4 -0.5,0 -8.4,-7.8 -19.8,-13.9 -0.5,0 32.7,44.9 -52,96.3 0,-0.4 12.2,-24 12.6,-34.4 0.3,0.3 -55.5,46.2 -144.4,31.4 0,0.6 36.3,-25.6 35,-35.5 -0.3,0 -79.3,55.5 -198.6,64.8 -0.3,0.3 29.7,-12.8 40,-36.9 0,0 13.2,-29.1 26.1,-40.1 0,0.6 -35,28.2 -73.4,18.9 -1,0 30.1,-7.3 40,-29.3 0,0 26.8,-73.2 97.5,-90.1 -0.1,0.5 98.1,-19 183,13.4 z"
   id="path34" />
</g></g>
</svg>
